<?xml version="1.0" encoding="UTF-8"?>
<svg xmlns="http://www.w3.org/2000/svg" xmlns:xlink="http://www.w3.org/1999/xlink" viewBox="0 0 22 22" width="22px" height="22px">
<g id="surface152623660">
<path style=" stroke:none;fill-rule:nonzero;fill:rgb(12.54902%,38.039216%,79.607844%);fill-opacity:1;" d="M 21.660156 11 C 21.660156 5.113281 16.886719 0.339844 11 0.339844 C 5.113281 0.339844 0.339844 5.113281 0.339844 11 C 0.339844 16.886719 5.113281 21.660156 11 21.660156 C 16.886719 21.660156 21.660156 16.886719 21.660156 11 Z M 21.660156 11 "/>
<path style=" stroke:none;fill-rule:nonzero;fill:rgb(100%,100%,100%);fill-opacity:1;" d="M 16.871094 7.429688 C 16.621094 6.78125 16.109375 6.882812 15.554688 6.996094 C 15.222656 7.0625 13.75 7.492188 11.425781 9.953125 C 10.457031 10.96875 9.824219 11.78125 9.402344 12.402344 C 9.144531 12.085938 8.851562 11.746094 8.542969 11.441406 C 7.59375 10.492188 6.53125 9.839844 6.488281 9.8125 C 6.046875 9.542969 5.464844 9.679688 5.191406 10.128906 C 4.921875 10.570312 5.058594 11.148438 5.5 11.425781 C 5.507812 11.429688 6.417969 11.992188 7.203125 12.777344 C 8 13.578125 8.726562 14.660156 8.734375 14.675781 C 8.910156 14.941406 9.207031 15.09375 9.523438 15.09375 C 9.574219 15.09375 9.628906 15.089844 9.683594 15.082031 C 10.054688 15.019531 10.347656 14.742188 10.4375 14.382812 C 10.441406 14.375 10.816406 13.335938 12.789062 11.257812 C 14.378906 9.578125 15.4375 9.046875 15.808594 8.898438 C 15.8125 8.898438 15.8125 8.898438 15.820312 8.898438 C 15.820312 8.898438 15.835938 8.894531 15.855469 8.882812 C 15.921875 8.855469 15.953125 8.847656 15.953125 8.847656 C 15.9375 8.851562 15.929688 8.851562 15.929688 8.851562 L 15.929688 8.847656 C 16.101562 8.773438 16.417969 8.636719 16.421875 8.632812 C 16.898438 8.425781 17.058594 7.910156 16.871094 7.429688 Z M 16.871094 7.429688 "/>
</g>
</svg>
